<?xml version="1.0" encoding="utf-8"?>
<!-- Generator: Adobe Illustrator 18.1.1, SVG Export Plug-In . SVG Version: 6.00 Build 0)  -->
<!DOCTYPE svg PUBLIC "-//W3C//DTD SVG 1.1//EN" "http://www.w3.org/Graphics/SVG/1.1/DTD/svg11.dtd">
<svg version="1.1" xmlns="http://www.w3.org/2000/svg" xmlns:xlink="http://www.w3.org/1999/xlink"
	 viewBox="0 0 251.9 29" width="252" height="29" x="0" y="0" style="enable-background:new 0 0 251.9 29;" xml:space="preserve">
<style type="text/css">
	.st0{fill:#FFFFFF;}
</style>
<path class="st0" d="M0,0v1v1v11.5v2V27v1v1h29v-1v-1V15.5v-2V2V1V0H0z M2,2h11.5v11.5H2V2z M2,15.5h11.5V27H2V15.5z M27,27H15.5
	V15.5H27V27z M27,13.5H15.5V2H27V13.5z"/>
<g>
	<path class="st0" d="M58.7,0c-8,0-14.5,6.5-14.5,14.5S50.8,29,58.7,29c8,0,14.5-6.5,14.5-14.5S66.7,0,58.7,0z M58.7,27.5
		c-7.2,0-13-5.8-13-13s5.8-13,13-13c7.2,0,13,5.8,13,13S65.9,27.5,58.7,27.5z"/>
	<path class="st0" d="M58.7,24.8c-5.7,0-10.3-4.6-10.3-10.3S53.1,4.2,58.7,4.2S69,8.8,69,14.5S64.4,24.8,58.7,24.8z M58.7,7
		c-4.1,0-7.5,3.4-7.5,7.5s3.4,7.5,7.5,7.5s7.5-3.4,7.5-7.5S62.9,7,58.7,7z"/>
	<path class="st0" d="M58.7,18.2c-2,0-3.7-1.6-3.7-3.7s1.6-3.7,3.7-3.7s3.7,1.6,3.7,3.7S60.8,18.2,58.7,18.2z"/>
</g>
<g>
	<path class="st0" d="M147.2,29c-7.8,0.1-14.5-6.6-14.3-14.9c0.2-7.5,6.4-14.3,14.9-14.1c7.5,0.2,13.9,6.8,13.8,14.6
		C161.6,22.6,155.1,29.1,147.2,29z M147.2,25.7c6.1,0,11.1-5,11.1-11.2c0-6.1-5-11.2-11.1-11.2c-6.1,0-11,5-11.1,11.2
		C136.1,20.7,141,25.7,147.2,25.7z"/>
	<path class="st0" d="M148.8,19.1c-1,0-1.9,0-3,0c0.1-1.4,0.1-2.9,0.3-4.3c0.1-0.5,0.6-1,1-1.3c0.5-0.5,1.2-0.8,1.8-1.2
		c1.3-1,1.1-2.7-0.5-3.3c-1.8-0.8-3.6,0.3-3.8,2.2c0,0.4-0.1,0.8-0.1,1.3c-0.9,0-1.8,0-2.7,0c-0.8-3.2,1.7-6.5,5-6.6
		c1.7,0,3.2,0.4,4.4,1.6c2.2,2.2,1.9,5.5-0.6,7.2c-0.2,0.1-0.4,0.3-0.7,0.4c-0.8,0.5-1.3,1.2-1.2,2.2
		C148.8,17.9,148.8,18.5,148.8,19.1z"/>
	<path class="st0" d="M145.9,23.2c0-1,0-1.9,0-2.9c1,0,1.8,0,2.8,0c0,0.9,0,1.8,0,2.9C147.8,23.2,146.9,23.2,145.9,23.2z"/>
</g>
<path class="st0" d="M219.5,26.4c0-8,0-15.9,0-23.8c10.8,0,21.6,0,32.4,0c0,7.9,0,15.9,0,23.8C241.1,26.4,230.4,26.4,219.5,26.4z
	 M221.9,7.7c0,0.4,0,0.7,0,1c0,4.8,0,9.6,0,14.4c0,1.1,0,1.1,1,1.1c8.6,0,17.1,0,25.7,0c0.3,0,0.7-0.1,1-0.1c0-5.4,0-10.8,0-16.3
	c-4.7,3.6-9.2,7.2-13.8,10.8C231.1,15,226.6,11.4,221.9,7.7z M222,4.7c0.2,0.2,0.3,0.3,0.4,0.4c4.3,3.3,8.6,6.6,12.8,9.9
	c0.5,0.4,0.7,0.2,1.1-0.1c4.2-3.2,8.5-6.5,12.7-9.7c0.2-0.1,0.3-0.3,0.5-0.5C240.3,4.7,231.2,4.7,222,4.7z"/>
<g>
	<path class="st0" d="M109.8,28.4c-0.5-0.6-1.1-0.8-1.8-0.4c-4.5-6.4-9.1-12.8-13.6-19.1c0.1,0,0.2,0,0.2,0c0-0.5,0-1.1,0.1-1.6
		c0.1-0.3,0.4-0.5,0.6-0.8c0.6,0.5,1.2,0.8,1.8,0.3c0.6-0.4,0.6-1,0.3-1.6c0.4-0.4,0.7-0.6,1.3-0.3C99,5.1,99.7,5,99.9,4.7
		c0.3-0.2,0.3-0.8,0.4-1.2c0-0.1-0.1-0.3-0.1-0.5c0.2-0.2,0.4-0.3,0.7-0.5c0.6,0.4,1.1,0.7,1.8,0.2c0.6-0.4,0.6-1,0.3-1.7
		c0.2-0.2,0.5-0.3,0.7-0.5c0,0.1,0,0.1,0,0.2c0.6,0.1,1.2,0.2,2,0.3c4.4,6.1,8.9,12.5,13.5,18.9c-0.5,0.5-0.7,1.2-0.2,1.9
		c-0.3,0.2-0.5,0.4-0.7,0.5c-0.8-0.6-1.4-0.7-1.9-0.3c-0.5,0.4-0.6,0.9-0.2,1.8c-0.2,0.2-0.4,0.3-0.7,0.5c-0.8-0.6-1.4-0.7-1.9-0.3
		c-0.5,0.4-0.6,0.9-0.2,1.8c-0.2,0.2-0.5,0.3-0.7,0.5c-0.7-0.6-1.2-0.8-1.8-0.4c-0.6,0.4-0.7,0.9-0.3,1.9
		C110.3,28.1,110.1,28.2,109.8,28.4z"/>
	<path class="st0" d="M102.1,21.4c-0.4-0.2-0.6-0.2-0.8-0.3c-4.4-1.9-8.8-3.8-13.2-5.8c-0.4-0.2-0.6-0.3-0.6-0.8
		c0-0.4-0.4-0.8-0.6-1.4c0.1-0.4,0.3-0.7,1-0.7c1,0,1.4-1.2,0.8-2c-0.1-0.2-0.3-0.3-0.4-0.4c0.1-0.6,0.3-1,1-0.9c1,0,1.5-1.2,0.9-2
		c-0.1-0.2-0.3-0.3-0.5-0.5C89.8,6.3,89.9,6,90,5.7c0.7,0.1,1.4,0,1.7-0.8c0.3-0.7,0-1.3-0.6-1.7c0.1-0.3,0.2-0.6,0.4-0.9
		c0.6,0.1,1.2,0.1,1.6-0.5c0-0.1,0.3-0.1,0.4,0c1.2,0.5,2.5,1.1,3.8,1.7c-0.5,0.3-0.8,0.6-1.2,0.9c0.2,0.5,0.8,1,0.1,1.5
		c-0.6,0.4-0.9-0.1-1.3-0.6c-0.6,0.4-1.1,0.8-1.7,1.2c0.5,0.7,0.7,1.4-0.3,1.8C95.9,12.7,98.9,16.9,102.1,21.4z"/>
	<path class="st0" d="M116.9,13.4c-0.1,0.3-0.3,0.6-0.5,1c-0.9-1.3-1.8-2.5-2.6-3.7c0,0,0-0.1,0.1-0.1c0.7,0.3,1.4,0.6,2,0.9
		c0.1,0,0.1,0.2,0.1,0.3C115.9,12.6,116.3,13.1,116.9,13.4z"/>
</g>
<g>
	<path class="st0" d="M191.4,22.6c-3.4-0.1-6.6-0.8-9.4-2.8c-4.3-3-4.3-7.6,0-10.7c5.1-3.6,13.8-3.6,18.9-0.1
		c4.5,3.1,4.5,7.8,0,10.9C198,21.9,194.7,22.5,191.4,22.6z"/>
	<path class="st0" d="M206.1,11.7c1.6,0.1,2.6,1.2,2.7,2.6c0.1,1.5-0.9,2.7-2.7,3C206.1,15.5,206.1,13.6,206.1,11.7z"/>
	<path class="st0" d="M188.8,24.4c1.9,0,3.7,0,5.6,0c-0.1,1.6-1.1,2.7-2.7,2.8C190.2,27.2,189,26.2,188.8,24.4z"/>
	<path class="st0" d="M194.4,4.7c-1.9,0-3.7,0-5.5,0c-0.1-1.5,1-2.7,2.5-2.8C193,1.8,194.3,2.9,194.4,4.7z"/>
	<path class="st0" d="M176.9,11.7c0,1.9,0,3.8,0,5.6c-1.7-0.2-2.7-1.3-2.8-2.8C174.1,13.1,175.1,12,176.9,11.7z"/>
	<path class="st0" d="M184.4,5.8c-1.6,0.9-3.2,1.8-4.7,2.7c-0.8-1.3-0.6-2.7,0.6-3.6C181.6,4,183.2,4.2,184.4,5.8z"/>
	<path class="st0" d="M198.8,5.8c1.1-1.5,2.4-1.8,3.7-1.1c1.4,0.7,1.8,2.1,1.1,3.9C202.1,7.7,200.5,6.8,198.8,5.8z"/>
	<path class="st0" d="M179.6,20.7c1.6,0.9,3.2,1.8,4.7,2.7c-0.7,1.4-2.2,1.9-3.6,1.2C179.3,23.9,178.8,22.5,179.6,20.7z"/>
	<path class="st0" d="M198.8,23.5c1.7-1,3.2-1.9,4.8-2.8c0.7,1.6,0.4,2.9-0.9,3.8C201.4,25.3,200,25,198.8,23.5z"/>
</g>
</svg>
