<?xml version="1.0" encoding="utf-8"?>
<!-- Generator: Adobe Illustrator 18.1.1, SVG Export Plug-In . SVG Version: 6.00 Build 0)  -->
<!DOCTYPE svg PUBLIC "-//W3C//DTD SVG 1.1//EN" "http://www.w3.org/Graphics/SVG/1.1/DTD/svg11.dtd">
<svg version="1.1" id="Layer_2" xmlns="http://www.w3.org/2000/svg" xmlns:xlink="http://www.w3.org/1999/xlink" x="0px" y="0px"
	 viewBox="0 0 123.7 99.2" style="enable-background:new 0 0 123.7 99.2;" xml:space="preserve">
<style type="text/css">
	.st0{fill:#FFFFFF;}
	.st1{fill:#231F20;}
</style>
<g>
	<g>
		<path class="st0" d="M48.7,41.6c-3.9,0-7.1,3.2-7.1,7.1c0,3.9,3.2,7.1,7.1,7.1s7.1-3.2,7.1-7.1C55.8,44.8,52.6,41.6,48.7,41.6z"/>
		<path class="st0" d="M48.6,0C21.8,0,0,21.8,0,48.6s21.8,48.6,48.6,48.6s48.6-21.8,48.6-48.6S75.4,0,48.6,0z M59.4,7.8
			c6.5,0,11.7,5.2,11.7,11.7s-5.2,11.7-11.7,11.7S47.7,26,47.7,19.5S53,7.8,59.4,7.8z M28.9,13.4c6.5,0,11.7,5.2,11.7,11.7
			s-5.2,11.7-11.7,11.7s-11.7-5.2-11.7-11.7S22.4,13.4,28.9,13.4z M18.6,65.9c-6.5,0-11.7-5.2-11.7-11.7s5.2-11.7,11.7-11.7
			s11.7,5.2,11.7,11.7S25.1,65.9,18.6,65.9z M38.6,89.3C32.2,89.3,27,84,27,77.6s5.2-11.7,11.7-11.7s11.7,5.2,11.7,11.7
			S45.1,89.3,38.6,89.3z M48.7,59.2c-5.8,0-10.5-4.7-10.5-10.5c0-5.8,4.7-10.5,10.5-10.5c5.8,0,10.5,4.7,10.5,10.5
			C59.2,54.5,54.5,59.2,48.7,59.2z M68.9,83.8c-6.5,0-11.7-5.2-11.7-11.7s5.2-11.7,11.7-11.7s11.7,5.2,11.7,11.7
			S75.4,83.8,68.9,83.8z M79.5,54.6c-6.5,0-11.7-5.2-11.7-11.7S73,31.2,79.5,31.2s11.7,5.2,11.7,11.7S85.9,54.6,79.5,54.6z"/>
	</g>
	<path class="st1" d="M121.7,50.6l2,8.5c0,0-4.9-1.8-8.9,0c0,0-6.3,2.6-5.3,13.5c0,0,0.4,8.3-2.7,15c0,0-3,8.8-13.9,11.5
		c0,0-10.7,2.1-15.4-7.3c0,0,7.3-5.4,7.5-6c0,0,0,7.1,4,9c0,0,4,2.8,8,0.6c0,0,6.2-3.1,7.2-11.3c0,0-0.5-16.5-0.1-20.2
		c0,0-0.3-8.6,8.6-11.9c0,0,2.8-1.1,5.9-1.1L121.7,50.6z"/>
</g>
</svg>
