<?xml version="1.0" encoding="utf-8"?>
<!-- Generator: Adobe Illustrator 18.1.1, SVG Export Plug-In . SVG Version: 6.00 Build 0)  -->
<!DOCTYPE svg PUBLIC "-//W3C//DTD SVG 1.1//EN" "http://www.w3.org/Graphics/SVG/1.1/DTD/svg11.dtd">
<svg version="1.1" id="Layer_1" xmlns="http://www.w3.org/2000/svg" xmlns:xlink="http://www.w3.org/1999/xlink" x="0px" y="0px"
	 viewBox="0 0 104 66.7" style="enable-background:new 0 0 104 66.7;" xml:space="preserve">
<style type="text/css">
	.st0{clip-path:url(#SVGID_2_);fill:url(#SVGID_3_);}
	.st1{clip-path:url(#SVGID_5_);fill:url(#SVGID_6_);}
	.st2{clip-path:url(#SVGID_8_);fill:url(#SVGID_9_);}
	.st3{clip-path:url(#SVGID_11_);fill:url(#SVGID_12_);}
	.st4{clip-path:url(#SVGID_14_);fill:url(#SVGID_15_);}
	.st5{clip-path:url(#SVGID_17_);fill:url(#SVGID_18_);}
	.st6{clip-path:url(#SVGID_20_);fill:url(#SVGID_21_);}
	.st7{clip-path:url(#SVGID_23_);fill:url(#SVGID_24_);}
	.st8{clip-path:url(#SVGID_26_);fill:url(#SVGID_27_);}
	.st9{clip-path:url(#SVGID_29_);fill:url(#SVGID_30_);}
	.st10{clip-path:url(#SVGID_32_);fill:url(#SVGID_33_);}
	.st11{clip-path:url(#SVGID_35_);fill:url(#SVGID_36_);}
	.st12{clip-path:url(#SVGID_38_);fill:url(#SVGID_39_);}
	.st13{clip-path:url(#SVGID_41_);fill:url(#SVGID_42_);}
	.st14{fill:#FFFFFF;}
</style>
<g>
	<g>
		<g>
			<defs>
				<path id="SVGID_1_" d="M71.9,17.3L56.8,4v13.8l-6.6-7.5l-10.5,1.8l-5.8,1v-2.3l-22.3,3.9v24.6c-0.4,0.1-0.8,0.2-1.2,0.3
					c-2.4,0.8-4.7,2.4-6.2,4.5c-1.2,1.6-1.9,3.5-1.9,5.4c0,0,0,0,0,0.1v0c0,0.6,0.1,1.3,0.2,1.9l0,0v0l0,0.1
					c0.4,1.6,1.3,2.9,2.5,3.9l-4.9,6l2.2,2c1.4,1.2,3.1,2.1,5,2.6c1.2,0.3,2.5,0.5,3.8,0.5H104l-7.2-41.3l-3.7,0.6L86.4,0L71.9,17.3
					z"/>
			</defs>
			<clipPath id="SVGID_2_">
				<use xlink:href="#SVGID_1_"  style="overflow:visible;"/>
			</clipPath>
			
				<linearGradient id="SVGID_3_" gradientUnits="userSpaceOnUse" x1="-1905.1252" y1="2006.7834" x2="-1904.9799" y2="2006.7834" gradientTransform="matrix(-244.7364 -214.9207 214.9207 -244.7364 -897466.0625 81745.9766)">
				<stop  offset="0" style="stop-color:#0073AE"/>
				<stop  offset="0.1078" style="stop-color:#0068A3"/>
				<stop  offset="0.2702" style="stop-color:#005D98"/>
				<stop  offset="0.4374" style="stop-color:#005791"/>
				<stop  offset="0.6154" style="stop-color:#00558F"/>
				<stop  offset="1" style="stop-color:#004282"/>
			</linearGradient>
			<polygon class="st0" points="58.7,118.3 -33.1,37.6 45.3,-51.6 137.1,29 			"/>
		</g>
	</g>
	<g>
		<g>
			<defs>
				<polygon id="SVGID_4_" points="7.3,47.3 16.4,54.1 15.8,58.5 9.2,60.4 11.9,63.3 102.1,65.4 28.5,43.7 26.3,45.4 17,42.7 				
					"/>
			</defs>
			<clipPath id="SVGID_5_">
				<use xlink:href="#SVGID_4_"  style="overflow:visible;"/>
			</clipPath>
			
				<linearGradient id="SVGID_6_" gradientUnits="userSpaceOnUse" x1="-1913.8663" y1="2003.9261" x2="-1913.7209" y2="2003.9261" gradientTransform="matrix(-490.2993 -57.9761 57.9761 -490.2993 -1054458 871623.1875)">
				<stop  offset="0" style="stop-color:#0073AE"/>
				<stop  offset="0.1078" style="stop-color:#0068A3"/>
				<stop  offset="0.2702" style="stop-color:#005D98"/>
				<stop  offset="0.4374" style="stop-color:#005791"/>
				<stop  offset="0.6154" style="stop-color:#00558F"/>
				<stop  offset="1" style="stop-color:#002F67"/>
			</linearGradient>
			<polygon class="st1" points="100.8,76.4 4.7,65.1 8.6,31.7 104.7,43 			"/>
		</g>
	</g>
	<g>
		<g>
			<defs>
				<polygon id="SVGID_7_" points="14.9,17.5 14.9,39.3 102.1,65.4 30.4,14.8 				"/>
			</defs>
			<clipPath id="SVGID_8_">
				<use xlink:href="#SVGID_7_"  style="overflow:visible;"/>
			</clipPath>
			
				<linearGradient id="SVGID_9_" gradientUnits="userSpaceOnUse" x1="-1909.7198" y1="2006.7025" x2="-1909.5745" y2="2006.7025" gradientTransform="matrix(-331.9732 -160.5443 160.5443 -331.9732 -956064.375 359625.4688)">
				<stop  offset="0" style="stop-color:#0073AE"/>
				<stop  offset="0.1078" style="stop-color:#0068A3"/>
				<stop  offset="0.2702" style="stop-color:#005D98"/>
				<stop  offset="0.4374" style="stop-color:#005791"/>
				<stop  offset="0.6154" style="stop-color:#00558F"/>
				<stop  offset="1" style="stop-color:#002F67"/>
			</linearGradient>
			<polygon class="st2" points="85.6,99.5 -4.9,55.8 31.4,-19.3 121.9,24.4 			"/>
		</g>
	</g>
	<g>
		<g>
			<defs>
				<polygon id="SVGID_10_" points="24.5,25.9 19.4,29.3 102.1,65.4 30.4,23.1 				"/>
			</defs>
			<clipPath id="SVGID_11_">
				<use xlink:href="#SVGID_10_"  style="overflow:visible;"/>
			</clipPath>
			
				<linearGradient id="SVGID_12_" gradientUnits="userSpaceOnUse" x1="-1922.1661" y1="2010.0983" x2="-1922.0208" y2="2010.0983" gradientTransform="matrix(-253.968 84.3535 -84.3535 -253.968 -318535.375 672681.75)">
				<stop  offset="0" style="stop-color:#0073AE"/>
				<stop  offset="0.1078" style="stop-color:#0068A3"/>
				<stop  offset="0.2702" style="stop-color:#005D98"/>
				<stop  offset="0.4374" style="stop-color:#005791"/>
				<stop  offset="0.6154" style="stop-color:#00558F"/>
				<stop  offset="1" style="stop-color:#002F67"/>
			</linearGradient>
			<polygon class="st3" points="114.7,61.2 27.6,90.1 6.8,27.3 93.9,-1.6 			"/>
		</g>
	</g>
	<g>
		<g>
			<defs>
				<polygon id="SVGID_13_" points="26.8,43.6 22.6,51.8 29.7,60.1 102.1,65.4 40.2,42.1 				"/>
			</defs>
			<clipPath id="SVGID_14_">
				<use xlink:href="#SVGID_13_"  style="overflow:visible;"/>
			</clipPath>
			
				<linearGradient id="SVGID_15_" gradientUnits="userSpaceOnUse" x1="-1912.6112" y1="2006.2638" x2="-1912.4658" y2="2006.2638" gradientTransform="matrix(-391.8367 -87.0748 87.0748 -391.8367 -924034.875 619647.75)">
				<stop  offset="0" style="stop-color:#0073AE"/>
				<stop  offset="0.1078" style="stop-color:#0068A3"/>
				<stop  offset="0.2702" style="stop-color:#005D98"/>
				<stop  offset="0.4374" style="stop-color:#005791"/>
				<stop  offset="0.6154" style="stop-color:#00558F"/>
				<stop  offset="1" style="stop-color:#002F67"/>
			</linearGradient>
			<polygon class="st4" points="98.3,82.2 17.7,64.3 26.4,25.3 107,43.2 			"/>
		</g>
	</g>
	<g>
		<g>
			<defs>
				<polygon id="SVGID_16_" points="35.8,25.8 34.4,35.9 102.1,65.4 38.9,15.6 				"/>
			</defs>
			<clipPath id="SVGID_17_">
				<use xlink:href="#SVGID_16_"  style="overflow:visible;"/>
			</clipPath>
			
				<linearGradient id="SVGID_18_" gradientUnits="userSpaceOnUse" x1="-1911.639" y1="2011.2396" x2="-1911.4937" y2="2011.2396" gradientTransform="matrix(-269.5822 -75.7812 75.7812 -269.5822 -667684.6875 397370.0625)">
				<stop  offset="0" style="stop-color:#0073AE"/>
				<stop  offset="0.1078" style="stop-color:#0068A3"/>
				<stop  offset="0.2702" style="stop-color:#005D98"/>
				<stop  offset="0.4374" style="stop-color:#005791"/>
				<stop  offset="0.6154" style="stop-color:#00558F"/>
				<stop  offset="1" style="stop-color:#002F67"/>
			</linearGradient>
			<polygon class="st5" points="97.1,83 21.4,61.7 39.4,-2 115,19.2 			"/>
		</g>
	</g>
	<g>
		<g>
			<defs>
				<polygon id="SVGID_19_" points="45.8,29.8 43.1,34.5 102.1,65.4 47.2,14.2 				"/>
			</defs>
			<clipPath id="SVGID_20_">
				<use xlink:href="#SVGID_19_"  style="overflow:visible;"/>
			</clipPath>
			
				<linearGradient id="SVGID_21_" gradientUnits="userSpaceOnUse" x1="-1903.9933" y1="2008.8564" x2="-1903.8479" y2="2008.8564" gradientTransform="matrix(-209.5245 -184.1275 184.1275 -209.5245 -768737.25 70374.9453)">
				<stop  offset="0" style="stop-color:#0073AE"/>
				<stop  offset="0.1078" style="stop-color:#0068A3"/>
				<stop  offset="0.2702" style="stop-color:#005D98"/>
				<stop  offset="0.4374" style="stop-color:#005791"/>
				<stop  offset="0.6154" style="stop-color:#00558F"/>
				<stop  offset="1" style="stop-color:#002F67"/>
			</linearGradient>
			<polygon class="st6" points="76.3,94.6 17.7,43.1 68.8,-15.1 127.5,36.5 			"/>
		</g>
	</g>
	<g>
		<g>
			<defs>
				<polygon id="SVGID_22_" points="43.1,38 43.1,57.3 102.1,65.4 56.6,35.7 				"/>
			</defs>
			<clipPath id="SVGID_23_">
				<use xlink:href="#SVGID_22_"  style="overflow:visible;"/>
			</clipPath>
			
				<linearGradient id="SVGID_24_" gradientUnits="userSpaceOnUse" x1="-1909.5067" y1="2010.0708" x2="-1909.3613" y2="2010.0708" gradientTransform="matrix(-278.0049 -112.0183 112.0183 -278.0049 -755923.5 344968.8125)">
				<stop  offset="0" style="stop-color:#0073AE"/>
				<stop  offset="0.1078" style="stop-color:#0068A3"/>
				<stop  offset="0.2702" style="stop-color:#005D98"/>
				<stop  offset="0.4374" style="stop-color:#005791"/>
				<stop  offset="0.6154" style="stop-color:#00558F"/>
				<stop  offset="1" style="stop-color:#002F67"/>
			</linearGradient>
			<polygon class="st7" points="93.8,85.8 32.8,61.2 51.3,15.2 112.4,39.8 			"/>
		</g>
	</g>
	<g>
		<g>
			<defs>
				<polygon id="SVGID_25_" points="71.5,24 63.4,20.1 60.2,31.5 102.1,65.4 84,7.9 				"/>
			</defs>
			<clipPath id="SVGID_26_">
				<use xlink:href="#SVGID_25_"  style="overflow:visible;"/>
			</clipPath>
			
				<linearGradient id="SVGID_27_" gradientUnits="userSpaceOnUse" x1="-1896.1991" y1="2005.9741" x2="-1896.0537" y2="2005.9741" gradientTransform="matrix(-107.0296 -208.6169 208.6169 -107.0296 -621339.875 -180827.3125)">
				<stop  offset="0" style="stop-color:#0073AE"/>
				<stop  offset="0.1078" style="stop-color:#0068A3"/>
				<stop  offset="0.2702" style="stop-color:#005D98"/>
				<stop  offset="0.4374" style="stop-color:#005791"/>
				<stop  offset="0.6154" style="stop-color:#00558F"/>
				<stop  offset="1" style="stop-color:#002F67"/>
			</linearGradient>
			<polygon class="st8" points="69,82.4 36.9,19.9 93.4,-9.1 125.4,53.4 			"/>
		</g>
	</g>
	<g>
		<g>
			<defs>
				<polygon id="SVGID_28_" points="72,28.9 102.1,65.4 84,27.4 78.9,17.5 				"/>
			</defs>
			<clipPath id="SVGID_29_">
				<use xlink:href="#SVGID_28_"  style="overflow:visible;"/>
			</clipPath>
			
				<linearGradient id="SVGID_30_" gradientUnits="userSpaceOnUse" x1="-1897.3793" y1="2008.7369" x2="-1897.2339" y2="2008.7369" gradientTransform="matrix(-129.2024 -183.8651 183.8651 -129.2024 -614389 -89277.4375)">
				<stop  offset="0" style="stop-color:#0073AE"/>
				<stop  offset="0.1078" style="stop-color:#0068A3"/>
				<stop  offset="0.2702" style="stop-color:#005D98"/>
				<stop  offset="0.4374" style="stop-color:#005791"/>
				<stop  offset="0.6154" style="stop-color:#00558F"/>
				<stop  offset="1" style="stop-color:#002F67"/>
			</linearGradient>
			<polygon class="st9" points="81.9,79.5 49.5,33.3 92.1,3.3 124.6,49.6 			"/>
		</g>
	</g>
	<g>
		<g>
			<defs>
				<polygon id="SVGID_31_" points="71.8,33 72.7,44 60.2,34.8 60.2,54.4 102.1,65.4 76,32.3 				"/>
			</defs>
			<clipPath id="SVGID_32_">
				<use xlink:href="#SVGID_31_"  style="overflow:visible;"/>
			</clipPath>
			
				<linearGradient id="SVGID_33_" gradientUnits="userSpaceOnUse" x1="-1901.4413" y1="2016.6577" x2="-1901.2959" y2="2016.6577" gradientTransform="matrix(-157.3707 -113.3796 113.3796 -157.3707 -527785.375 101836.0078)">
				<stop  offset="0" style="stop-color:#0073AE"/>
				<stop  offset="0.1078" style="stop-color:#0068A3"/>
				<stop  offset="0.2702" style="stop-color:#005D98"/>
				<stop  offset="0.4374" style="stop-color:#005791"/>
				<stop  offset="0.6154" style="stop-color:#00558F"/>
				<stop  offset="1" style="stop-color:#002F67"/>
			</linearGradient>
			<polygon class="st10" points="87.8,85.2 44.6,54.1 74.5,12.5 117.7,43.6 			"/>
		</g>
	</g>
	<g>
		<g>
			<defs>
				<polygon id="SVGID_34_" points="73.9,34.8 76,51.9 102.1,65.4 76,32.3 				"/>
			</defs>
			<clipPath id="SVGID_35_">
				<use xlink:href="#SVGID_34_"  style="overflow:visible;"/>
			</clipPath>
			
				<linearGradient id="SVGID_36_" gradientUnits="userSpaceOnUse" x1="-1896.458" y1="2024.6254" x2="-1896.3126" y2="2024.6254" gradientTransform="matrix(-113.6812 -84.657 84.657 -113.6812 -386894.5625 69668.0547)">
				<stop  offset="0" style="stop-color:#0073AE"/>
				<stop  offset="0.1078" style="stop-color:#0068A3"/>
				<stop  offset="0.2702" style="stop-color:#005D98"/>
				<stop  offset="0.4374" style="stop-color:#005791"/>
				<stop  offset="0.6154" style="stop-color:#00558F"/>
				<stop  offset="1" style="stop-color:#002F67"/>
			</linearGradient>
			<polygon class="st11" points="92,78.9 58.1,53.6 83.9,18.8 117.9,44.1 			"/>
		</g>
	</g>
	<g>
		<g>
			<defs>
				<polygon id="SVGID_37_" points="79.6,31.7 79.6,51 102.1,65.4 93.2,29.4 				"/>
			</defs>
			<clipPath id="SVGID_38_">
				<use xlink:href="#SVGID_37_"  style="overflow:visible;"/>
			</clipPath>
			
				<linearGradient id="SVGID_39_" gradientUnits="userSpaceOnUse" x1="-1889.0308" y1="2035.121" x2="-1888.8854" y2="2035.121" gradientTransform="matrix(-81.6329 -63.4923 63.4923 -81.6329 -283321.6563 46248.3203)">
				<stop  offset="0" style="stop-color:#0073AE"/>
				<stop  offset="0.1078" style="stop-color:#0068A3"/>
				<stop  offset="0.2702" style="stop-color:#005D98"/>
				<stop  offset="0.4374" style="stop-color:#005791"/>
				<stop  offset="0.6154" style="stop-color:#00558F"/>
				<stop  offset="1" style="stop-color:#002F67"/>
			</linearGradient>
			<polygon class="st12" points="93.6,76.2 62.2,51.8 88.1,18.5 119.5,42.9 			"/>
		</g>
	</g>
	<g>
		<g>
			<defs>
				<polygon id="SVGID_40_" points="79.6,51 102.1,65.4 93.2,48.7 86.6,48 				"/>
			</defs>
			<clipPath id="SVGID_41_">
				<use xlink:href="#SVGID_40_"  style="overflow:visible;"/>
			</clipPath>
			
				<linearGradient id="SVGID_42_" gradientUnits="userSpaceOnUse" x1="-1852.5415" y1="2021.8079" x2="-1852.3961" y2="2021.8079" gradientTransform="matrix(-21.7686 -71.6552 71.6552 -21.7686 -185108.6406 -88673.0156)">
				<stop  offset="0" style="stop-color:#0073AE"/>
				<stop  offset="0.1078" style="stop-color:#0068A3"/>
				<stop  offset="0.2702" style="stop-color:#005D98"/>
				<stop  offset="0.4374" style="stop-color:#005791"/>
				<stop  offset="0.6154" style="stop-color:#00558F"/>
				<stop  offset="1" style="stop-color:#002F67"/>
			</linearGradient>
			<polygon class="st13" points="81.5,71.6 74.8,49.5 100.2,41.8 106.9,63.9 			"/>
		</g>
	</g>
	<polygon class="st14" points="14.9,39.3 14.9,17.5 30.4,14.8 30.4,19.2 19.4,21.1 19.4,25 30.4,23.1 30.4,27.4 19.4,29.3 
		19.4,38.5 	"/>
	<polygon class="st14" points="34.4,35.9 34.4,16.4 38.9,15.6 38.9,35.2 	"/>
	<polygon class="st14" points="43.1,34.5 43.1,14.9 47.2,14.2 47.2,29.5 56.6,27.8 56.6,32.1 	"/>
	<polygon class="st14" points="79.6,28.1 79.6,19 72,28.9 64.5,21.8 64.5,30.8 60.2,31.5 60.2,11.9 72,22.2 84,7.9 84,27.4 	"/>
	<path class="st14" d="M19,59.7c-1.2,1.5-2.6,2.5-4.2,3.1c-0.5,0.2-1,0.3-1.5,0.4c-1.6,0.3-3.2,0.2-4.8-0.2c-1.5-0.4-2.8-1.1-3.8-2
		l2.9-3.5c0.7,0.6,1.7,1.1,2.9,1.4c1,0.3,1.8,0.4,2.6,0.3c0.2,0,0.4,0,0.6-0.1c0.9-0.2,1.5-0.6,1.8-1.2c0.1-0.2,0.2-0.4,0.2-0.6
		c0-0.5-0.3-0.9-0.8-1.2c-0.6-0.3-1.5-0.7-2.8-1c-0.8-0.2-1.5-0.5-2-0.7c-0.3-0.2-0.6-0.3-0.9-0.5c-1.8-0.7-2.9-1.9-3.3-3.5
		c-0.1-0.4-0.1-0.8-0.1-1.2C5.6,48,6,47,6.7,45.9c1.2-1.5,2.6-2.6,4.2-3.1c0.6-0.2,1.2-0.3,1.8-0.4c2.7-0.5,5.1,0.2,7.2,2L17,47.6
		c-1.3-1.1-2.7-1.5-4.3-1.2c-1,0.2-1.7,0.5-2.1,1c-0.3,0.4-0.5,0.7-0.5,1.1c0,0.5,0.2,0.9,0.7,1.1c0.7,0.4,1.6,0.7,2.6,1.1
		c0.3,0.1,1.4,0.5,3.3,1.3c0.7,0.3,1.4,0.7,2,1.3c0.6,0.6,1,1.3,1.2,1.9c0.1,0.3,0.1,0.7,0.1,1.1C20.3,57.3,19.8,58.5,19,59.7"/>
	<path class="st14" d="M37.3,45.3c-1.8-1.6-3.7-2.2-5.8-1.8c-1.8,0.3-3.3,1.1-4.4,2.5s-1.8,2.9-1.8,4.7c0,2.5,1,4.1,3,4.9
		c1,0.4,2,0.5,3.2,0.3c1.1-0.2,2.2-0.6,3.1-1.3c0.8-0.5,1.6-1.4,2.6-2.5l2.8,2.4c-1.4,1.6-2.7,2.8-3.9,3.6c-1.4,0.9-2.9,1.5-4.7,1.8
		c-3.1,0.5-5.5,0-7.5-1.6c-1.9-1.6-2.9-3.8-2.9-6.8c0-4,1.7-7.2,5.1-9.6c1.7-1.2,3.4-2,5.3-2.3c1.6-0.3,3.2-0.2,4.6,0.2
		c1.5,0.4,2.8,1.2,4,2.4L37.3,45.3z"/>
	<polygon class="st14" points="43.1,57.3 43.1,38 56.6,35.7 56.6,39.7 47.2,41.3 47.2,44.9 56.6,43.3 56.6,47.2 47.2,48.8 
		47.2,52.6 56.6,50.9 56.6,55 	"/>
	<polygon class="st14" points="64.4,43.8 64.4,53.7 60.2,54.4 60.2,34.8 71.8,42.9 71.8,33 76,32.3 76,51.9 	"/>
	<polygon class="st14" points="79.6,51 79.6,31.7 93.2,29.4 93.2,33.4 83.8,35 83.8,38.6 93.2,37 93.2,40.9 83.8,42.5 83.8,46.3 
		93.2,44.6 93.2,48.7 	"/>
</g>
</svg>
